<svg xmlns="http://www.w3.org/2000/svg" viewBox="0 0 120 40" role="img" aria-label="ACME Health">
  <rect width="120" height="40" rx="8" fill="#0f1c26"/>
  <path d="M15 28L24 12h4l9 16h-5l-2-4h-8l-2 4h-5zm8-8h5l-2.5-5-2.5 5zm28.5 8L43 12h5l6 11 6-11h5l-8.5 16h-5zm21.5-16c4.7 0 8 2.9 8 7.3V28h-4.8v-2.5c-1.1 1.9-3 2.9-5.4 2.9-3.6 0-6-2.1-6-5.2 0-3.1 2.4-5 6.6-5h4.4c-.1-2-1.6-3.2-3.9-3.2-2 0-3.8.8-5.2 2.2l-2.4-3c2-2.1 4.7-3.2 7.7-3.2zm.5 9.4H69c-1.6 0-2.4.6-2.4 1.8 0 1.1.9 1.9 2.5 1.9 2.3 0 3.9-1.3 4.4-3.7zM98 12h4.8v5.9c1.1-4 3.5-6.1 7-6.1v5c-4.3 0-7 2.6-7 8.8V28H98V12z" fill="#34D6D9"/>
</svg>
