<svg xmlns="http://www.w3.org/2000/svg" viewBox="0 0 960 420" role="img" aria-labelledby="title desc">
  <title id="title">Aurora offshore platform silhouette</title>
  <desc id="desc">Stylised offshore rig with cranes and ocean horizon</desc>
  <defs>
    <linearGradient id="sky" x1="0" y1="0" x2="0" y2="1">
      <stop offset="0%" stop-color="#0b2742"/>
      <stop offset="60%" stop-color="#0f3a56"/>
      <stop offset="100%" stop-color="#112e3f"/>
    </linearGradient>
    <linearGradient id="water" x1="0" y1="0" x2="1" y2="0">
      <stop offset="0%" stop-color="#06202d"/>
      <stop offset="50%" stop-color="#0a2d3b"/>
      <stop offset="100%" stop-color="#06202d"/>
    </linearGradient>
    <linearGradient id="light" x1="0" y1="0" x2="1" y2="1">
      <stop offset="0%" stop-color="#27e0ff" stop-opacity="0.45"/>
      <stop offset="100%" stop-color="#27e0ff" stop-opacity="0"/>
    </linearGradient>
  </defs>
  <rect width="960" height="280" fill="url(#sky)"/>
  <rect y="280" width="960" height="140" fill="url(#water)"/>
  <g fill="#071f2a" opacity="0.6">
    <rect x="120" y="220" width="620" height="90" rx="8"/>
    <rect x="180" y="160" width="120" height="80" rx="6"/>
    <rect x="340" y="150" width="140" height="90" rx="6"/>
    <rect x="520" y="170" width="120" height="70" rx="6"/>
  </g>
  <g fill="#0a2d3b">
    <rect x="200" y="140" width="80" height="20" rx="4"/>
    <rect x="360" y="130" width="120" height="20" rx="4"/>
    <rect x="540" y="150" width="100" height="20" rx="4"/>
    <rect x="260" y="200" width="12" height="110"/>
    <rect x="420" y="200" width="12" height="110"/>
    <rect x="580" y="200" width="12" height="110"/>
  </g>
  <g fill="#27e0ff" opacity="0.45">
    <rect x="210" y="188" width="60" height="12" rx="6"/>
    <rect x="370" y="178" width="88" height="12" rx="6"/>
    <rect x="550" y="188" width="72" height="12" rx="6"/>
  </g>
  <g fill="#0c3d56">
    <rect x="260" y="300" width="12" height="60"/>
    <rect x="420" y="300" width="12" height="60"/>
    <rect x="580" y="300" width="12" height="60"/>
  </g>
  <g fill="#0f516e">
    <circle cx="300" cy="260" r="12"/>
    <circle cx="460" cy="260" r="12"/>
    <circle cx="620" cy="260" r="12"/>
  </g>
  <g fill="#27e0ff" opacity="0.15">
    <rect x="0" y="260" width="960" height="8"/>
    <rect x="0" y="300" width="960" height="6"/>
  </g>
  <g fill="url(#light)">
    <path d="M140 220h140l-40 160H100z" opacity="0.6"/>
    <path d="M380 220h140l-40 160H340z" opacity="0.4"/>
    <path d="M600 220h140l-40 160H560z" opacity="0.3"/>
  </g>
  <g stroke="#27e0ff" stroke-width="4" stroke-linecap="round" opacity="0.6">
    <line x1="220" y1="150" x2="170" y2="90"/>
    <line x1="420" y1="140" x2="360" y2="70"/>
    <line x1="600" y1="160" x2="660" y2="90"/>
  </g>
  <g fill="#0c3d56">
    <rect x="150" y="320" width="120" height="6" rx="3"/>
    <rect x="310" y="340" width="140" height="6" rx="3"/>
    <rect x="500" y="310" width="120" height="6" rx="3"/>
  </g>
</svg>
